<?xml version="1.0" encoding="UTF-8"?>
<svg width="32px" height="32px" viewBox="0 0 32 32" version="1.1" xmlns="http://www.w3.org/2000/svg" xmlns:xlink="http://www.w3.org/1999/xlink">
    <!-- Generator: Sketch 52.6 (67491) - http://www.bohemiancoding.com/sketch -->
    <title>Slice</title>
    <desc>Created with Sketch.</desc>
    <g id="Atomos" stroke="none" stroke-width="1" fill="none" fill-rule="evenodd">
        <g id="Iconos" transform="translate(-366.000000, -6157.000000)" fill="#666666" fill-rule="nonzero">
            <g id="Group-44" transform="translate(366.000000, 6157.000000)">
                <path d="M18.4728277,28 C18.0772361,28.9772768 17.1191259,29.6666667 16,29.6666667 C14.5272407,29.6666667 13.3333333,28.4727593 13.3333333,27 C13.3333333,25.5272407 14.5272407,24.3333333 16,24.3333333 C17.1191259,24.3333333 18.0772361,25.0227232 18.4728277,26 L20.6666667,26 C22.8331907,26 24.6283644,24.41006 24.9490345,22.3333333 L24,22.3333333 C23.2636203,22.3333333 22.6666667,21.7363797 22.6666667,21 L22.6666667,12.3333333 C22.6666667,11.5969537 23.2636203,11 24,11 L24.7584512,11 C23.862668,7.36356926 20.579615,4.66666667 16.6666667,4.66666667 L15.3333333,4.66666667 C11.4208786,4.66666667 8.13816037,7.36288883 7.24188795,10.9986237 C7.24188795,10.9986873 7.23743858,10.9991587 7.22895099,11 L8.66666667,11 C9.40304633,11 10,11.5969537 10,12.3333333 L10,21 C10,21.7363797 9.40304633,22.3333333 8.66666667,22.3333333 L6.33333333,22.3333333 C4.30828925,22.3333333 2.66666667,20.6917107 2.66666667,18.6666667 L2.66666667,14.6666667 C2.66666667,13.0526065 3.70956938,11.6821293 5.15827749,11.1923324 C6.01238714,6.34729902 10.2430314,2.66666667 15.3333333,2.66666667 L16.6666667,2.66666667 C21.7003093,2.66666667 25.8933252,6.26581804 26.8126378,11.0310444 C28.6111998,11.2658545 30,12.8040748 30,14.6666667 L30,18.6666667 C30,20.4742599 28.6920059,21.9763548 26.9708647,22.2781043 C26.6632768,25.48903 23.958206,28 20.6666667,28 L18.4728277,28 Z" id="Combined-Shape"></path>
            </g>
        </g>
    </g>
</svg>