<?xml version="1.0" encoding="UTF-8"?>
<svg width="32px" height="32px" viewBox="0 0 32 32" version="1.1" xmlns="http://www.w3.org/2000/svg" xmlns:xlink="http://www.w3.org/1999/xlink">
    <!-- Generator: Sketch 52.6 (67491) - http://www.bohemiancoding.com/sketch -->
    <title>hotels</title>
    <desc>Created with Sketch.</desc>
    <g id="Atomos" stroke="none" stroke-width="1" fill="none" fill-rule="evenodd">
        <g id="Iconos" transform="translate(-144.000000, -3971.000000)" fill="#666666">
            <g id="ico-hotels" transform="translate(144.000000, 3971.000000)">
                <path d="M30.5,22.3639893 C30.5,21.2919922 29.6418457,20.0117188 28.6445312,18.7731934 C26.4272461,19.8864746 22.2431641,20.7775635 16.291748,20.7910156 L16.2128906,20.7910156 C10.2568359,20.7775635 6.07275391,19.8864746 3.85546875,18.7731934 C2.86279297,20.0117188 2,21.2919922 2,22.3639893 C2,24.1540527 6.97265625,26.3063965 16.2128906,26.3203125 L16.291748,26.3203125 C25.5366211,26.3063965 30.5,24.1540527 30.5,22.3639893 L30.5,22.3639893 Z M16.2128906,19.4086914 L16.291748,19.4086914 C21.565918,19.4040527 25.4484863,18.6989746 27.8095703,17.7619629 C27.8049316,8.953125 19.4321289,7.70068359 18.6481934,7.70068359 C18.6481934,6.8425293 17.1220703,7.00024414 16.6210938,7.00024414 C16.6210938,6.14672852 17.0710449,5.86376953 17.0710449,5.86376953 L18.0683594,5.39990234 L17.8642578,4.5 L14.6403809,4.5 L14.4362793,5.39990234 L15.4196777,5.86376953 C15.4196777,5.86376953 15.8835449,6.14672852 15.8835449,7.00024414 C15.3825684,7.00024414 13.8564453,6.8425293 13.8564453,7.70068359 C13.0678711,7.70068359 5.33520508,8.76293945 4.68579102,17.7248535 C7.046875,18.6989746 10.934082,19.4040527 16.2128906,19.4086914 Z" id="hotels"></path>
            </g>
        </g>
    </g>
</svg>