<?xml version="1.0" encoding="UTF-8"?>
<svg width="32px" height="32px" viewBox="0 0 32 32" version="1.1" xmlns="http://www.w3.org/2000/svg" xmlns:xlink="http://www.w3.org/1999/xlink">
    <!-- Generator: Sketch 52.6 (67491) - http://www.bohemiancoding.com/sketch -->
    <title>warning</title>
    <desc>Created with Sketch.</desc>
    <g id="Atomos" stroke="none" stroke-width="1" fill="none" fill-rule="evenodd">
        <g id="Iconos" transform="translate(-366.000000, -2390.000000)" fill="#666666">
            <g id="ico-warning" transform="translate(355.000000, 2390.000000)">
                <path d="M28.3467578,9.59997559 L28.3467578,13.3749775 L27.8200906,19.5999717 L26.1921907,19.5999717 L25.6867847,13.3749775 L25.6867847,9.59997559 L28.3467578,9.59997559 Z M26.9967805,24.7142857 C25.9662702,24.7142857 25.1267805,23.8835268 25.1267805,22.8549554 C25.1267805,21.8307812 25.9662702,21 26.9967805,21 C28.0272908,21 28.8667805,21.8307589 28.8667805,22.8549554 C28.8667805,23.8835268 28.0272908,24.7142857 26.9967805,24.7142857 Z M39.4589179,22.3549941 L30.5589494,6.12 C30.5105007,6.12 29.00293,3 27.0700385,3 L26.7200701,3 C24.7925648,3 23.2742216,5.96499023 23.2311591,6.12 L14.2719695,22.3549941 C11.246083,27.2649824 14.3204182,29 16.2479509,29 L37.5367988,29 C39.4643041,29 43.0662986,27.380002 39.4589452,22.3549941 L39.4589452,22.3549941 L39.4589179,22.3549941 Z" id="warning"></path>
            </g>
        </g>
    </g>
</svg>